<svg width="233" height="140" viewBox="0 0 233 140" fill="none" xmlns="http://www.w3.org/2000/svg"><path fill-rule="evenodd" clip-rule="evenodd" d="M66.437 113.608c-3.39 7.474-7.126 14.75-12.136 21.318-1.441 1.889 2.696 6.322 3.903 4.738 5.203-6.817 9.157-14.261 12.678-22.027.884-1.95-3.453-6.215-4.445-4.029zm-13.663-4.303c-3.99 4.128-7.804 8.41-11.715 12.607-3.826 4.107-8.086 7.855-11.727 12.117-1.509 1.767 2.539 6.192 3.856 4.651 3.64-4.264 7.898-8.012 11.726-12.118 3.913-4.196 7.725-8.479 11.715-12.607 1.599-1.653-2.396-6.161-3.855-4.65z" fill="#F08700"/><mask id="a" maskUnits="userSpaceOnUse" x="0" y="99" width="43" height="24"><path fill-rule="evenodd" clip-rule="evenodd" d="M0 99.546h42.15v22.666H0V99.546z" fill="#fff"/></mask><g mask="url(#a)"><path fill-rule="evenodd" clip-rule="evenodd" d="M37.79 99.702c-12.266 6.256-25.024 11.492-37.295 17.694-1.807.913 1.753 5.731 3.867 4.663 12.268-6.2 25.028-11.439 37.293-17.694 1.808-.923-1.758-5.739-3.866-4.663z" fill="#F08700"/></g><path fill-rule="evenodd" clip-rule="evenodd" d="M168.463 31.422c2.063-7.904 4.553-15.618 8.394-22.9.972-1.843-3.296-6.066-4.419-3.936-3.842 7.282-6.33 14.997-8.393 22.9-.534 2.044 3.882 5.995 4.418 3.936zm14.024 2.016c3.207-4.936 6.211-10 9.335-14.99 2.92-4.662 6.3-9.044 9.015-13.834 1.026-1.813-3.07-6.187-4.295-4.029-2.713 4.789-6.095 9.172-9.014 13.835-3.124 4.99-6.129 10.053-9.336 14.99-1.114 1.715 2.919 6.147 4.295 4.028zm50.062-16.505c1.748-1.32-2.024-6.05-3.824-4.69-10.882 8.213-22.407 15.554-33.275 23.822-1.747 1.328 2.031 6.055 3.824 4.69 10.868-8.267 22.393-15.609 33.275-23.822z" fill="#F08700"/></svg>