<svg width="95" height="34" viewBox="0 0 95 34" fill="none" xmlns="http://www.w3.org/2000/svg"><path fill-rule="evenodd" clip-rule="evenodd" d="M2.494 14.752c13.19.81 26.41.868 39.605.628-11.831 1.722-23.7 3.226-35.517 4.572-2.057.235-.008 4.492 1.688 4.455 14.904-.334 29.786-.887 44.672-1.415-.714.156-1.428.313-2.14.472-8.803 1.952-17.56 4.074-26.314 6.211-1.573.384.509 4.753 2.396 4.29 9.404-2.295 18.813-4.575 28.279-6.635 6.411-1.395 14.66-1.59 20.239-5.157 1.498-.96-.499-4.42-2.043-4.373-6.878.205-13.752.441-20.626.685 9.52-1.485 19.001-3.121 28.395-4.958 1.039-.202.946-1.461.603-2.232-1.634-3.668-1.49-3.482-7.036-2.756-2.177.285-4.92.913-7.143 1.245-1.823.273-3.76.241-5.604.347-4.204.237-8.41.427-12.62.568-8.095.272-16.21.42-24.326.374a990.502 990.502 0 0117.124-1.84C50.55 8.4 58.99 7.7 67.412 6.863c4.386-.436 8.777-.882 13.139-1.496 4.406-.62 8.805-1.396 13.257-.486 2.36.481.76-3.972-.889-4.308-8.335-1.702-17.472.849-25.792 1.694-9.357.952-18.736 1.715-28.094 2.65-9.136.914-18.23 2.05-27.341 3.135C8.918 8.384 1.614 7.73.184 10.614c-.679 1.369.615 4.033 2.31 4.137z" fill="#3CCFCF"/></svg>